<svg xmlns="http://www.w3.org/2000/svg" viewBox="0 0 32 40" x="0px" y="0px"><title>Night Mode</title><g data-name="Night Mode"><path d="M17.2,31A15,15,0,1,1,27.7,5.28,1,1,0,0,1,27,7a9,9,0,0,0,0,18,1,1,0,0,1,.68,1.72A15,15,0,0,1,17.2,31Zm0-28a13,13,0,1,0,7.4,23.69,11,11,0,0,1,0-21.38A12.92,12.92,0,0,0,17.2,3Z"/></g><text x="0" y="47" fill="#000000" font-size="5px" font-weight="bold" font-family="'Helvetica Neue', Helvetica, Arial-Unicode, Arial, Sans-serif">Created by Fiki Ahmadi</text><text x="0" y="52" fill="#000000" font-size="5px" font-weight="bold" font-family="'Helvetica Neue', Helvetica, Arial-Unicode, Arial, Sans-serif">from the Noun Project</text></svg>